<?xml version="1.0" encoding="UTF-8"?>
<svg xmlns="http://www.w3.org/2000/svg" version="1.1" viewBox="0 0 2647.3 2647.9">
  <!-- Generator: Adobe Illustrator 30.4.0, SVG Export Plug-In . SVG Version: 2.1.4 Build 226)  -->
  <defs>
    <style>
      .st0 {
        fill: #bda49d;
      }

      .st1 {
        fill: #c7c7c7;
      }

      .st2 {
        fill: #ad9684;
      }

      .st3 {
        fill: #967770;
      }

      .st5 {
        fill: #7f5e55;
      }
  
  /* === DRAW-ON ANIMATION === */
  #Layer_2 {
    animation: layerOn 0.1s linear 0.3s forwards;
  }
  #g97 {
    opacity: 0;
    animation: fadeUp 2.0s cubic-bezier(0.22, 1, 0.36, 1) 0.4s forwards;
  }
  #g98 {
    opacity: 0;
    animation: fadeUp 1.6s cubic-bezier(0.22, 1, 0.36, 1) 1.2s forwards;
  }
  @keyframes layerOn {
    to { opacity: 1; }
  }
  @keyframes fadeUp {
    0%   { opacity: 0; transform: translateY(12px); }
    100% { opacity: 1; transform: translateY(0); }
  }
  </style>
  </defs>
  <g id="svg1">
    
    <g id="path2">
      <path id="path1" class="st1" d="M1250.1,640.6c-67.9,0-114.3,25.6-140.9,47.4-35.8,29.3-50,61.1-52.3,66.6v.3c-.1,0-.2.2-.2.2l-27.1,66.7-37.4,92,80.6-58,27.3-19.6c22.3-16,41.5-22.9,56.4-22.9s9.9.8,14.5,2.3c22.7,7.5,41.9,36.3,50.8,54.7,9.3,27.6,5.9,44.5-7.7,83.3l-64.6,167.7-110.7-121.5-10.1-11.1-30.2-33.2-17.3,41.4-5.7,13.7c-.2.4-8.4,19.3-24.5,38.1h0c-20.5,23.8-41,34-63.4,34s-35.1-14.2-48.5-27.8c-7.9-8-14.5-16.2-19-22.4-4.6-6.2-7.9-11.5-7-10h0s-19.1-31.4-19.1-31.4l-29.7-48.8-21.2,53.1-1.6,4-1.6,4-1.6,4-1.6,4-1.6,4-1.6,4-1.6,4-1.6,4-1.6,4-2.3,5.7.3,6.1,1.5,36.9c.1,2.8,1.9,43.4,19.4,91.7,12.6,34.7,30.3,64.7,52.6,88.9.3,2,.6,4.9,1.4,8.7,1.8,8.7,5.8,20.7,15.3,32.3,8.3,10.2,20.1,18.4,33.6,24,13.5,5.7,29.7,9.7,45.3.9h0c3.3-1.9,5.6-3.5,7.5-4.6,19.3,5.1,39.2,7.8,59.4,7.8,48.1,0,86.8-14.1,111.4-23.9,1,1.2,2,2.4,3.1,3.7l-59.3,154c-42.5,7.3-82.6,24.4-116.8,50.3-38.4,29-67.9,67.6-85.1,111.6,0,0,0,0,0,0-.5,1.1-.9,2.3-1.5,3.7-.5,1.2-1,2.5-1.6,4-.5,1.2-1,2.5-1.6,4-.5,1.2-1,2.5-1.6,4-.5,1.2-1,2.5-1.6,4-.5,1.2-1,2.5-1.6,4-.5,1.2-1,2.5-1.6,4-.5,1.2-1,2.5-1.6,4-12.4,30.1-18.7,61.9-18.7,94.4,0,141.3,119.5,256,265.4,256.2h.3c54.4,0,106.7-16,150.9-46.1,43.1-29.4,75.8-70.4,94.6-118.4.5-1.2,1-2.4,1.5-3.7h0c.5-1.3,1.1-2.6,1.6-4v-.3c.6-1.2,1.1-2.4,1.6-3.7v-.3c.6-1.2,1.1-2.4,1.6-3.7v-.3c.6-1.2,1.1-2.4,1.6-3.7v-.3c.6-1.3,1.2-2.6,1.7-4,.5-1.2,1-2.5,1.5-3.7,0,0,0,0,0,0v-.2c.6-1.2,1.1-2.5,1.6-3.7,12.5-30.4,18.8-62.7,18.9-95.7,0-.2.4-24.7-5.8-56l-11.6-58.5-38.1,104.5c-.7,1.9-15.7,43.2-21.6,60.1-9.4,20.4-20.2,38.8-31.9,54.6-34.6,46.7-92.1,75-153.8,75h-.1c-48.5,0-95.5-18.8-123.6-46-10.6-11.2-22.6-28.7-26.6-44.5-1.4-6.7-1.5-13.3-.5-20,.1-.6.2-1.1.3-1.7.3-1,.7-2,1-3,2.9-5.6,6-9.6,9.2-12.7.9-.8,1.9-1.4,2.9-2.2,1.9,1.3,2.9,2.2,4.2,3h0c19.2,12.8,44.8,17.9,66.9,5.3,5.6-3.2,10.5-7.8,14.7-13.2,11.8,4,23.1,9.2,33.3,14.9,15.8,9.1,30.4,19.9,41.3,28.7.9.8,1.1.9,1.9,1.7h0c0,0,7.8,6.8,7.8,6.8l23.3,20.2,18.4-24.7,159.3-214.2h0c.5-.7,2.9-4.5,5.4-10.3,2.5-5.8,6.6-15.8,13.9-34.6,4.4-10.9,3.4-24.1-3.8-34.8,30.8,15.3,60,26.5,84.3,34.2,34.5,10.9,63.1,16.7,82.3,19.8,15.3,47.1,49.4,144.6,97.2,198.4,67.1,75.7,185.1,133.6,190.9,136.5l9.3,4.6,27.7,13.8,11.5-28.8c2.2-5.4,6.1-15.2,9.3-23.3h0s5-12.5,5-12.5l87.3-219.1c3.7-9.3,3.6-19.9-.4-29.2h0s0,0,0,0h0c-4-9.2-11.6-16.6-20.9-20.3-4.5-1.8-9.3-2.7-14.1-2.7-15.5,0-29.7,9.6-35.4,24l-.4,1c-25.6-12.2-59.8-30.3-73.7-43.5-6.5-6.2-20.2-29.8-30.7-53.8s-19.7-49.1-24-62h0c0-.1,0-.3,0-.3v-.3c0,0-.2-.4-.2-.4l-220.6-607.1v-.2c0,0,0,0,0,0v-.2c0,0-.2-.2-.2-.2v-.2c-1.1-2.6-17.7-44.5-49.8-89.6-44.1-62-97.5-100.9-155.3-109.1-14.4-2-28.6-3.1-42.3-3.1h0ZM1718.6,1451.1h0c0,.1,0,.1,0,.1h0ZM1250.1,657.3c12.9,0,26.3,1,40,2.9,51.9,7.3,101.7,42.7,144.1,102.2,30.8,43.3,47.1,84.3,47.8,86.1h0c0,0,0,.2,0,.2v.2c0,0,.1,0,.1,0h0c0,0,220.5,607,220.5,607h0c0,.1,0,.3,0,.3h0c0,.1,0,.2,0,.2h0c8.9,27,36.9,101.6,59.1,122.7,21.4,20.3,68.9,42.9,94.1,54l.6-1.4c0-.1.1-.2.2-.4l1.4-3.6c0-.1,0-.2.1-.3l1.4-3.6c0-.1,0-.2.1-.3l1.4-3.6c0-.1.1-.3.2-.4l1.5-3.6c3.3-8.2,11.1-13.5,19.9-13.5s5.4.5,7.9,1.5c5.3,2.1,9.5,6.2,11.8,11.5,0,0,0,0,0,0,2.3,5.3,2.3,11.1.2,16.4l-87.3,219.1-2.1,5.3h0c-3.2,8.1-9.4,23.5-12.2,30.5l-4.8,12-11.6-5.7-9.3-4.6c-5-2.5-122.5-61.2-185.8-132.6-46-51.9-83.6-160.1-97-202.2-17.3-2.5-50-8.3-89.8-20.9-54.7-17.3-133.9-51.4-200.6-115.4-27.6-26.5-52.3-51.4-73.9-74.5l-51.5,133.7c32.1,1.5,63,8.8,92,21.8,28.4,12.6,53.6,30,75.2,51.8l20.3-27.3c4-5.4,10.5-8.7,17.2-8.7s9.1,1.5,12.8,4.2c8.9,6.6,10.4,17.4,7.3,24.7-14.6,37.7-16.1,39.6-17.2,41.1l-159.3,214.2-7.7,10.3-9.7-8.4-7.7-6.7c0,0-.9-.8-2.3-2-11.4-9.2-26.7-20.6-43.7-30.3-11.8-6.6-25.2-12.9-39.4-17.5-4.2-1.2-5.3-1.8-9.5-2.6-4.1,9.6-8.2,14.3-15.5,18.4-16.1,9.1-33.7,5.8-49.5-4.7-1.7-1.1-12.6-9-12.6-9-5.6,2.6-10.7,5.8-15,9.7-4.9,4.6-9.3,10.4-13.1,18-.8,1.9-1.5,3.8-2,5.8-.3,1.2-.5,2.3-.7,3.3-1.3,8.8-1.1,17.6.7,26.3,5,20.5,18.8,39.8,31.1,52.5,31.9,31,82.7,50.8,135.5,50.9h.1c66.7,0,129.2-30.6,167.2-81.7,12.6-17,24-36.5,33.9-58.1,5.5-15.9,21.2-59,21.9-60.8l17.7-48.5c5.9,29.7,5.5,52.6,5.5,52.6,0,30.9-5.9,61.1-17.6,89.5-.5,1.4-1.1,2.7-1.6,4-.5,1.4-1.1,2.7-1.6,4-.5,1.4-1.1,2.7-1.6,4-.5,1.4-1.1,2.7-1.6,4-.5,1.4-1.1,2.7-1.6,4-.5,1.4-1.1,2.7-1.6,4-.5,1.4-1.1,2.7-1.6,4-.5,1.4-1.1,2.7-1.6,4-17.5,44.9-48.1,83.1-88.4,110.7-41.4,28.3-90.3,43.2-141.5,43.2h-.3c-137.2-.1-248.7-107.6-248.7-239.5s5.9-60,17.4-88.1c.6-1.5,1.1-2.8,1.6-4,.6-1.6,1.1-2.8,1.6-4,.6-1.5,1.1-2.8,1.6-4,.6-1.5,1.1-2.8,1.6-4,.6-1.6,1.1-2.8,1.6-4,.6-1.5,1.1-2.8,1.6-4,.6-1.5,1.1-2.8,1.6-4,.6-1.6,1.1-2.8,1.6-4,16.1-41,43.6-77.1,79.6-104.3,34.6-26.1,75.6-42.9,118.9-48.7l66.2-172c-7.2-8.4-12.8-15.3-17-20.6-1.2.5-2.4,1-3.7,1.5h0c-23.8,9.6-63.5,25.7-112.7,25.7s-40-2.8-59.2-8.3c-3.9-1.1-12,5.1-15.9,7.2-16.1,9.1-46.2-6.8-57.7-21-14.9-18.3-11.8-35.8-14.9-39-21.8-22.8-39.3-51.8-51.7-86-16.6-45.8-18.4-85.1-18.4-86.7l-1.5-36.9v-2.6c-.1,0,.8-2.4.8-2.4l1.6-4,1.6-4,1.6-4,1.6-4,1.6-4,1.6-4,1.6-4,1.6-4,1.6-4,8.9-22.1,12.4,20.4,19.2,31.5c.1.2,11.2,18,28.3,35.4,14.7,15,37.2,32.8,60.4,32.8s53.3-13.4,76-39.8c17.9-20.9,27.1-42.2,27.2-42.4l5.8-13.8,7.2-17.3,12.6,13.8,10.1,11.1,128.9,141.5,74.4-193.3c14-39.9,18.5-63.1,7.8-94.6,0-.3-.2-.6-.3-.9-9.5-20-29.7-53.8-61-64.1-6.3-2.1-12.9-3.1-19.7-3.1-19.8,0-42.1,8.8-66.1,26.1l-27.3,19.6-33.6,24.2,15.6-38.4,27.2-66.8h0s0,0,0,0c1.4-3.3,14.4-33,47.6-60.3,24.3-19.9,66.6-43.6,130.3-43.6ZM1274.8,962.7l-86.9,225.7,61.6,67.6v.2c.1,0,.3.2.3.2v.2c.4.3,27.6,32.1,69.1,59.4,35.2,23.1,69.6,36.3,102.6,39.3l-20.9-56.1s-15.7,1.6-26.6-11.5c-11.8-14.3-14.6-33.1-5-49.5,1.5-2.5,3.5-5.1,5.9-7.7l-100.1-267.8ZM1274.5,1009.7l81.4,217.9c-.5.7-1,1.4-1.4,2.1h0c-13.1,22.4-9,49.7,6.6,68.5h0c8.4,10.2,19,14.4,27.4,16.2l7.1,19c-21.6-5.8-44.2-16.2-67.5-31.5-19.6-12.9-36.1-27.1-47.6-38-11.5-10.9-19-19.7-17.8-18.3h0s-.1-.1-.1-.1l-.3-.4-.4-.4-54.7-60,67.4-175.1ZM799.3,1258.3c.2,0,.5.4.6,1,0,.1.1.6.1.8-.9-1.2-.9-1.8-.7-1.8ZM1134.7,1372.9c17.3,17.9,35.7,36.5,56.2,56.1,29.2,28.1,60.6,50.2,91.3,68.1-.1,0-.3,0-.4,0-12.1,0-23.4,5.7-30.6,15.4l-9.3,12.5c-19.7-17.2-41.8-31.5-66-42.3-24-10.7-49.3-17.7-75.4-21.1l34.2-88.7Z"/>
      <path id="path99" class="st5" d="M1318.9,1315.8c-41.5-27.3-68.7-59.1-69-59.4v-.2c-.1,0-.3-.2-.3-.2v-.2c-.1,0-61.8-67.6-61.8-67.6l86.9-225.7,100.1,267.8c-2.5,2.6-4.5,5.2-5.9,7.7-9.6,16.4-6.8,35.2,5,49.5,10.8,13.1,26.6,11.5,26.6,11.5l20.9,56.1c-33-3-67.4-16.2-102.6-39.3M1902.6,1615.2c-2.3-5.3-6.4-9.3-11.8-11.5-2.5-1-5.2-1.5-7.9-1.5-8.8,0-16.7,5.3-19.9,13.5l-1.5,3.6c0,.1-.1.2-.2.4l-1.4,3.6c0,.1,0,.2-.1.3l-1.4,3.6c0,.1,0,.2-.1.3l-1.5,3.6c0,.1-.1.2-.2.4l-.6,1.4c-25.2-11.1-72.8-33.7-94.1-54-22.2-21.1-50.2-95.7-59.1-122.6h0s0,0,0,0h0c0-.1,0-.3,0-.3h0c0-.1-220.5-607.1-220.5-607.1h0c0,0,0-.1,0-.1v-.2c0,0-.1,0-.1,0h0c-.7-1.8-17-42.8-47.8-86.1-42.3-59.5-92.1-94.9-144.1-102.2-13.6-1.9-27.1-2.9-40-2.9-63.7,0-106,23.7-130.3,43.6-33.2,27.2-46.2,57-47.6,60.3h0s0,0,0,0l-27.2,66.8-15.6,38.4,33.6-24.2,27.3-19.6c24.1-17.3,46.3-26.1,66.1-26.1s13.4,1.1,19.7,3.1c31.3,10.3,51.5,44.1,61,64.1,0,.3.2.6.3.9,10.7,31.5,6.3,54.6-7.8,94.6l-74.4,193.3-128.9-141.5-10.1-11.1-12.6-13.8-7.2,17.3-5.8,13.8c0,.2-9.2,21.5-27.2,42.4-22.7,26.4-48.3,39.8-76,39.8s-45.7-17.8-60.4-32.8c-17.2-17.4-28.2-35.2-28.3-35.4l-19.2-31.5-12.4-20.4-8.9,22.1-1.6,4-1.6,4-1.6,4-1.6,4-1.6,4-1.6,4-1.6,4-1.6,4-1.6,4-.9,2.4v2.6c.1,0,1.6,36.9,1.6,36.9,0,1.6,1.9,40.9,18.4,86.7,12.4,34.3,29.9,63.2,51.7,86,3.1,3.3,0,20.8,14.9,39,11.5,14.1,41.6,30.1,57.7,21,3.8-2.2,11.9-8.4,15.9-7.2,19.2,5.5,39.1,8.3,59.2,8.3,49.2,0,89-16.1,112.7-25.7h0c1.3-.6,2.6-1.1,3.7-1.5,4.2,5.3,9.8,12.2,17,20.6l-66.2,172c-43.3,5.8-84.3,22.6-118.9,48.7-36.1,27.2-63.6,63.3-79.6,104.3-.5,1.2-1,2.4-1.6,4-.5,1.2-1,2.4-1.6,4-.5,1.2-1,2.4-1.6,4-.5,1.2-1,2.4-1.6,4-.5,1.2-1,2.4-1.6,4-.5,1.2-1,2.4-1.6,4-.5,1.2-1,2.4-1.6,4-.5,1.2-1,2.4-1.6,4-11.6,28.1-17.4,57.7-17.4,88.1,0,131.9,111.6,239.4,248.7,239.5h.3c51.2,0,100.1-15,141.5-43.2,40.4-27.6,70.9-65.9,88.4-110.7.5-1.3,1.1-2.6,1.6-4,.5-1.3,1.1-2.6,1.6-4,.5-1.3,1-2.6,1.6-4,.5-1.3,1.1-2.6,1.6-4,.5-1.3,1.1-2.6,1.6-4,.5-1.3,1-2.6,1.6-4,.5-1.3,1.1-2.6,1.6-4,.5-1.3,1.1-2.6,1.6-4,11.7-28.5,17.6-58.6,17.6-89.5,0,0,.4-22.9-5.5-52.6l-17.7,48.5c-.7,1.8-16.4,45-21.9,60.8-9.9,21.6-21.3,41.1-33.9,58.1-37.9,51.2-100.4,81.7-167.2,81.7h-.1c-52.8,0-103.6-19.9-135.5-50.9-12.2-12.8-26-32-31.1-52.5-1.8-8.7-2.1-17.5-.7-26.3.2-1,.4-2.1.7-3.3.5-1.9,1.2-3.9,2-5.8,3.8-7.6,8.3-13.5,13.1-18,4.3-3.8,9.4-7,15-9.7,0,0,10.9,7.9,12.6,9,15.8,10.5,33.3,13.8,49.5,4.7,7.3-4.1,11.4-8.8,15.5-18.4,4.2.9,5.3,1.4,9.5,2.6,14.2,4.5,27.6,10.8,39.4,17.5,17,9.8,32.3,21.2,43.7,30.3,1.5,1.3,2.3,2,2.3,2l7.7,6.7,9.7,8.4,7.7-10.3,159.3-214.2c1.1-1.4,2.5-3.4,17.2-41.1,3.1-7.4,1.6-18.1-7.3-24.7-3.7-2.8-8.2-4.2-12.8-4.2-6.8,0-13.2,3.2-17.2,8.7l-20.3,27.3c-21.6-21.8-46.8-39.2-75.2-51.8-29-12.9-59.9-20.2-92-21.8l51.5-133.7c21.5,23.1,46.3,48,73.9,74.5,66.7,64,145.9,98.1,200.6,115.4,39.8,12.6,72.5,18.4,89.8,20.9,13.5,42.1,51.1,150.4,97,202.2,63.3,71.4,180.8,130.1,185.8,132.6l9.3,4.6,11.6,5.7,4.8-12c2.8-7.1,9-22.4,12.2-30.5h0s2.1-5.3,2.1-5.3l87.3-219.1c2.1-5.3,2-11.2-.2-16.4"/>
    </g>
    <path id="path3" class="st0" d="M1885.7,1614.3c-1.2-.5-2.4-.7-3.5-.7-3.8,0-7.4,2.3-8.9,6l-11.5,28.8c-20-8.4-82.3-35.9-108.9-61.2-28.9-27.5-61.8-126.5-62.2-127.5h0c0-.1-220.5-607.1-220.5-607.1v-.2c-.7-1.7-16.5-41.3-46.5-83.5-40.4-56.8-87.4-90.4-136-97.3-13.6-1.9-26.4-2.8-38.3-2.8-59.1,0-98.7,21.2-122.7,40.9-31.5,25.9-43.6,54.4-44.1,55.6l-12.9,31,27.3-19.6c26.2-18.9,50.7-28.3,73.1-28.3s15.9,1.2,23.5,3.7c35.7,11.8,58,48.8,68.5,71.3,0,.4.2.7.3,1.1,11.8,34.6,6.9,60.7-7.9,102.5l-95.3,247.6-142.3-156.1-10.1-11.1-5.8,13.8c-.4.9-38.2,89.5-114.2,89.5s-98.4-73.1-98.9-73.9l-19.2-31.5,1.5,36.9c0,1.6,1.8,39.1,17.7,83.2,9.7,26.8,22.7,50.2,38.4,69.7.1.1.2.3.4.4,4.6,5.9,11.8,11.1,18.4,4,4.1-4.4.5-10.8-.8-12.4-15.7-18.3-28.5-40.9-38.2-67.7-5.6-15.4-9.4-30-11.9-42.4,20.7,23.8,54,52.8,92.6,52.8s71.6-17.7,100.1-51.1c11.7-13.8,20.1-27.5,25.3-37.1l213.6,234.4c2.4,2.8,30.7,35.6,75.1,64.9,45.4,29.9,91.4,45.2,135.2,45.2s29.7-1.8,44.1-5.4l10.4-2.6-40.6-108.7s-4.1-8-13.9-2.5c-6.5,3.6-2.4,13.3-2.4,13.3l31.5,84.2c-9.8,1.8-19.7,2.7-29.7,2.7-39.7,0-81.1-14-123.5-41.9-43.2-28.4-71.2-61.3-71.5-61.7h-.1c0-.1-66.6-73.2-66.6-73.2l98.8-256.7v-.3c6.4-17.9,11-33.4,13.6-48.1l107.8,288.3s3.2,7.9,11.8,3.7c8.6-4.2,5-13.4,5-13.4l-122.9-328.8c-1.9-5.7-27.5-81.3-87.9-101.2-9.6-3.2-19.5-4.7-29.6-4.7-15.2,0-31.1,3.6-47.4,10.7,4.8-5.3,10.4-10.8,17-16.1,29.6-24,66.2-36.1,109.2-36.1,11.7,0,23.8.9,36.4,2.7,104.4,14.8,165.4,164.2,167.3,168.8l220.4,606.6c1.9,5.9,35.1,104.7,67.1,135.2,29.3,27.9,94.4,56.5,115,65.1l-61,153.2c-28.7-15.2-117.7-64.8-167.2-120.6-50.8-57.3-94.3-202.6-94.7-204l-1.9-6.3-6.5-.5c-.4,0-42.1-3.6-98.1-21.4-51.4-16.3-125.7-48.3-187.9-108.1-97.9-94-129.4-140.1-129.7-140.5l-4.5-6.7-7.4,3.4c-3,1.4-6.2,2.7-9.6,4-2.7,1-5.8,2.3-9,3.6-22.7,9.2-58.2,23.6-100.9,23.6s-34.6-2.2-53.3-7.9c0,0-6.8-2.4-9.3,4.2-4.4,11.3,3.9,14.1,6.4,14.8,19.5,5.6,38.3,7.8,55.9,7.8,46.9,0,85.6-15.6,108.3-24.8,3.3-1.3,6.2-2.5,8.7-3.5,1.2-.5,2.4-.9,3.5-1.4,4.7,6.3,13.2,17.1,26.7,32.6l-85.1,221c-118.8,12.2-211.6,109-211.6,226.3s106.3,227.5,237,227.6h.1c130.7,0,234.1-102.1,234.1-227.6,0,0-15.4,65.3-57.4,121.9-39.1,52.8-104.1,86.6-176.7,86.6h-.1c-73,0-142.6-36.3-169.3-88.1-17-33.1-13.7-67.8,9.5-100.5,10.5-14.8,22.7-25.9,36.3-33.5,1.7-1,5.8-5,1-12.4-4.6-7.2-11.3-3.8-12.2-3.2-15.2,8.9-28.8,21.6-40.6,38.1-17.4,24.4-25.3,50.5-23.5,76.5-12.3-26-19.1-54.9-19.1-85.3,0-115,97.8-208.5,218-208.5s127.7,28.1,169.3,77.2l-106.7,143.6c-15.7-12.2-52.7-38.2-95.7-50.2-1.1-.3-9.4-1.3-11.3,6.8-1.4,6,3.5,10.8,5.1,11.3,52.2,14.4,96.8,52.5,97.4,53l7.8,6.7,159.3-214.2c3.1-4.2,2.3-10.2-2-13.3-1.7-1.3-3.7-1.9-5.7-1.9-2.9,0-5.8,1.3-7.7,3.8l-28.8,38.8c-45.2-51.3-110.7-80.6-181-80.6s-3,0-4.5,0l78.4-203.7c20.3,22.4,48.5,51.8,86.7,88.5,65,62.4,142.4,95.7,195.9,112.7,45.4,14.4,81.2,19.7,95.3,21.4,9,29.1,48.8,150.9,96.9,205.2,61.8,69.7,177.3,127.4,182.2,129.8l9.3,4.6,87.3-219.1c2-4.9-.4-10.4-5.3-12.4"/>
  </g>
  <g id="Layer_2" style="opacity:0">
    <g>
      <g id="g97">
        <path id="path4" class="st3" d="M1557.2,1299.4c5.9-22.2-17.6-52.5-35.4-65.3-17.8-12.8-37.7-15.2-39.9-12.3-1,1.3.4,2.3,3.7,4.8,6.8,5.1,15.1,17.9,22,30.8,6.9,12.9,10.3,41.7,17.7,50.9,7.4,9.1,26,13.3,31.9-8.9"/>
        <path id="path5" class="st3" d="M1482.5,1282c-6.7-21.2-18.1-54-33.3-63.9-15.2-9.9-26.1-3.4-30.2.6-4.1,4-6.7,10.3-5.6,16.4,1.2,6.8,6.7,8,7.9,6.6,1.9-2.1-2.1-3.4-1.3-9.3.5-3.6,1.7-9.2,11.1-11,9.4-1.8,19.2,8.3,22.1,15.4,3,7.1,11.3,29.8,15.8,47.4,4.5,17.6,13.2,39,23.8,48.7,10.5,9.7,23,14.9,37.6,15.1,14.6.3,19-7.6,19-10.7,0-3-1.3-8-9.7-7.3-8.4.8-22.8.5-34.6-9.7-10.4-9-16.1-18-22.7-38.6"/>
        <path id="path6" class="st3" d="M1567.5,1271.5c5.8,17.7,6.5,37.9,6.2,42-.2,4.1.5,9,2.4,5.1,0,0,11.7-32.1-5.7-70.4-17.5-38.2-51.3-64.5-91.5-71.7-40.2-7.2-73,13.5-82.5,29.9-9.6,16.4-9.6,38,5,49.5,12,9.5,30.4,4.5,35.8-4.9,2.9-5.1,2.5-8.6,1.2-9.5-2.3-1.6-6.5,3.9-10.2,6.1-3.8,2.2-10.9,3.1-15.6-.6-4.7-3.7-8.2-8.6-8.4-15.7-.1-5.8,2.3-17.6,15.1-26.2,12.8-8.6,29.3-14.8,49.5-13.5,20.2,1.3,43.6,8,61.7,24.2,18.2,16.3,30.6,36.3,36.9,55.6"/>
        <path id="path7" class="st3" d="M1707.5,1612.7c2.7.3,5.2-1.5,5.5-4.2.4-2.7-1.5-5.2-4.2-5.5-2.7-.4-5.2,1.5-5.5,4.2-.3,2.7,1.5,5.1,4.2,5.5"/>
        <path id="path8" class="st3" d="M1584.7,1517.7c3.1,13,16,14.6,16,14.6-1.1-13.6-16-14.6-16-14.6"/>
        <path id="path9" class="st3" d="M1669,1638.4c2.6-4.3,6.8-8.6,13.1-11,0,0-8.1-.6-11.2-5.2-3.1-4.6-6.2-10-6.2-10,0,0,12.8,7.1,18.8,7.7,6,.5,13.5-1.6,16.5-15,0,0-7.8-1.4-14.1,0-6.3,1.4-15.7,5.2-20.5,1.8-4.8-3.4-12.4-11.9-12.4-11.9,0,0,4.8,13.1,3.7,19.9-1.1,6.8-8.7,16.3-10,21.2-2.2,8.2,1.2,15.2,1.2,15.2,0,0,10.9-4.9,13.7-12.1,2.7-7.2,0-23.8,0-23.8,0,0,3.6,5.1,5.3,9.6,1.7,4.5,1.7,2.7,2,13.7"/>
        <path id="path10" class="st3" d="M1616.5,1482.5c.4-3-1.7-5.7-4.7-6.1-3-.4-5.7,1.7-6.1,4.7-.4,3,1.7,5.7,4.7,6.1,3,.4,5.7-1.7,6.1-4.7"/>
        <path id="path11" class="st3" d="M1642.8,1651.8c-3-.4-5.7,1.7-6.1,4.7-.4,3,1.7,5.7,4.7,6.1,3,.4,5.7-1.7,6.1-4.7.4-3-1.7-5.7-4.7-6.1"/>
        <path id="path12" class="st3" d="M1632.3,1643.5c-2.8-.4-5.4,1.6-5.7,4.4-.4,2.8,1.6,5.4,4.4,5.7,2.8.4,5.4-1.6,5.7-4.4.4-2.8-1.6-5.4-4.4-5.7"/>
        <path id="path13" class="st3" d="M1579.2,1536.7c10.6,6.3,21.2-2.5,21.2-2.5-10.3-8.5-21.2,2.5-21.2,2.5"/>
        <path id="path14" class="st3" d="M1682,1668c-4.5-2.3-7.7-6.2-9.2-10.7-.6-1.8-1-3.7-1-5.6,0,0,0,0,0,0,0-1.8.1-3.6.6-5.4.4-1.4.9-2.7,1.5-4,4.1-7.8,12.7-11.6,20.9-9.8,1.6.4,3.2.9,4.8,1.7,0,0,.1,0,.2,0-1.1.2-2.1.5-3.1.9-3.7,1.4-6.9,4.1-8.8,7.9-.2.4-.4.8-.6,1.2-4.9-.5-9.9,1.3-13.4,4.9-.8.8-1.5,1.7-2.1,2.6.7.9,1.5,1.7,2.3,2.4.9.8,1.9,1.5,3,2,3.3,1.7,7,2.2,10.5,1.7,1.5,3.2,4,5.9,7.3,7.6.9.5,1.9.9,2.9,1.2,1,.3,2.1.5,3.1.6-1.5,1-3.2,1.7-4.9,2.2-4.5,1.3-9.5.9-14-1.4M1693.5,1646c-.9-.5-1.9-.9-2.9-1.2,0-.1.1-.3.2-.4,1.6-3,4.2-5.2,7.1-6.3.8,3.1.5,6.4-1.1,9.4,0,.2-.2.3-.3.5-.9-.8-1.9-1.5-3-2M1686.5,1654.7c-2.6.3-5.3-.1-7.8-1.4-1-.5-1.8-1.1-2.6-1.8,2.7-2.8,6.4-4.3,10.3-4.1-.5,2.4-.4,4.9.2,7.3M1689.5,1647.9c.8.2,1.6.6,2.4,1,1,.5,1.8,1.1,2.6,1.8-1.4,1.5-3.1,2.5-4.9,3.2-.5-1.9-.5-4-.1-6M1698.9,1663.6c-.8-.2-1.6-.6-2.4-1-2.5-1.3-4.4-3.3-5.6-5.6,2.2-.8,4.2-2.1,5.9-3.9,2.1,3,2.9,6.8,2.1,10.5M1704.1,1637.4c5.9,5.7,7.7,14.9,3.7,22.6-.8,1.5-1.7,2.8-2.8,4-1.1,1.2-2.4,2.3-3.8,3.2.4-1,.7-2,.9-3,1-4.8-.3-9.8-3.3-13.6.3-.4.6-.9.8-1.4,2-3.8,2.3-7.9,1.4-11.7-.3-1-.6-2.1-1.1-3,1.5.8,2.9,1.8,4.1,3M1690.3,1673.4c2.4,0,4.8-.3,7.2-1,.1,0,.2,0,.3-.1,2.6-.9,5.1-2.2,7.2-4,.6-.5,1.1-.9,1.6-1.4,1.6-1.6,2.9-3.3,3.9-5.3,0,0,0,0,0-.1,1.4-2.7,2.2-5.5,2.5-8.5.2-2.9,0-5.7-1-8.5-.6-1.8-1.3-3.5-2.3-5.1-.5-.9-1.1-1.7-1.8-2.5-.8-.9-1.6-1.8-2.5-2.6-1.3-1.2-2.8-2.1-4.4-3-1.5-.8-3-1.4-4.6-1.8-1.3-.3-2.6-.6-3.9-.7-1.1,0-2.1,0-3.2,0-1.8.1-3.6.4-5.3,1-2.8.9-5.3,2.2-7.5,4.1-2,1.7-3.7,3.7-5.1,6-.2.3-.3.6-.5.9-.9,1.8-1.6,3.7-2,5.7-.2.9-.3,1.9-.4,2.9-.2,2.8,0,5.5.9,8.2,0,.1,0,.2.1.3.7,2.3,1.8,4.5,3.3,6.5.3.4.5.7.8,1.1,1.9,2.3,4.2,4.2,6.9,5.6,2.7,1.4,5.5,2.2,8.5,2.5.4,0,.9,0,1.3,0"/>
        <path id="path15" class="st3" d="M1721.3,1670.1c3.3,4.4,8.3,10.6,15.1,17.7-6.9-1.9-15.3-4.4-24.2-7.8,3.1-2.3,6.4-5.5,9.1-9.9M1720.5,1660.3c-5.1,16.1-19.8,20.3-19.8,20.3,26.4,11.4,51.9,16,51.9,16-22.2-19.7-32.1-36.3-32.1-36.3"/>
        <path id="path16" class="st3" d="M1739.8,1698.4c-2.1-.3-4.1,1.2-4.4,3.4-.3,2.1,1.2,4.1,3.4,4.4,2.1.3,4.1-1.2,4.4-3.4.3-2.1-1.2-4.1-3.4-4.4"/>
        <path id="path17" class="st3" d="M1752.5,1701.6c-1.6-.2-3.1.9-3.3,2.6-.2,1.6.9,3.1,2.6,3.3s3.1-.9,3.3-2.6c.2-1.6-.9-3.1-2.6-3.3"/>
        <path id="path18" class="st3" d="M1676.7,1674.4c-2.8-.4-5.3,1.6-5.6,4.3-.4,2.8,1.6,5.3,4.3,5.6,2.8.4,5.3-1.6,5.6-4.3.4-2.8-1.6-5.3-4.3-5.6"/>
        <path id="path19" class="st3" d="M1664.9,1667.5c-2.9-.4-5.5,1.6-5.8,4.5s1.6,5.5,4.5,5.8c2.9.4,5.5-1.6,5.8-4.5.4-2.9-1.6-5.5-4.5-5.8"/>
        <path id="path20" class="st3" d="M1714,1690.9c-2.6-.3-4.9,1.5-5.3,4-.3,2.6,1.5,4.9,4,5.3,2.6.3,4.9-1.5,5.3-4,.3-2.6-1.5-4.9-4-5.3"/>
        <path id="path21" class="st3" d="M1701.2,1686c-2.7-.3-5.1,1.5-5.4,4.2-.3,2.7,1.5,5.1,4.2,5.4,2.7.3,5.1-1.5,5.4-4.2.3-2.7-1.5-5.1-4.2-5.4"/>
        <path id="path22" class="st3" d="M1726.7,1694.9c-2.5-.3-4.7,1.4-5,3.9s1.4,4.7,3.9,5c2.5.3,4.7-1.4,5-3.9.3-2.5-1.4-4.7-3.9-5"/>
        <path id="path23" class="st3" d="M1765.9,1694.2c-1.4-.2-2.6.8-2.8,2.2-.2,1.4.8,2.6,2.2,2.8,1.4.2,2.6-.8,2.8-2.2.2-1.4-.8-2.6-2.2-2.8"/>
        <path id="path24" class="st3" d="M1765.1,1708.8c1.8.2,3.5-1,3.7-2.9.2-1.8-1-3.5-2.9-3.7-1.8-.2-3.5,1-3.7,2.9-.2,1.8,1,3.5,2.9,3.7"/>
        <path id="path25" class="st3" d="M1779.6,1699.5c-1.6-.2-3.1.9-3.3,2.6-.2,1.6.9,3.1,2.6,3.3,1.6.2,3.1-.9,3.3-2.6.2-1.6-.9-3.1-2.6-3.3"/>
        <path id="path26" class="st3" d="M1718.4,1628.4c-2.6-.3-5,1.5-5.3,4.1-.3,2.6,1.5,5,4.1,5.3,2.6.3,5-1.5,5.3-4.1.3-2.6-1.5-5-4.1-5.3"/>
        <path id="path27" class="st3" d="M1704.6,1590.2c-2.7-.4-5.2,1.6-5.6,4.3-.4,2.7,1.6,5.2,4.3,5.6,2.7.4,5.2-1.6,5.6-4.3.4-2.7-1.6-5.2-4.3-5.6"/>
        <path id="path28" class="st3" d="M1746.3,1674.8c-2.1-.3-4.1,1.2-4.3,3.3-.3,2.1,1.2,4.1,3.3,4.3,2.1.3,4.1-1.2,4.3-3.3.3-2.1-1.2-4.1-3.3-4.3"/>
        <path id="path29" class="st3" d="M1737.7,1664.2c-2.4-.3-4.6,1.4-4.9,3.8-.3,2.4,1.4,4.6,3.8,4.9,2.4.3,4.6-1.4,4.9-3.8.3-2.4-1.4-4.6-3.8-4.9"/>
        <path id="path30" class="st3" d="M1713.4,1615.5c-2.8-.4-5.3,1.6-5.7,4.4-.4,2.8,1.6,5.3,4.4,5.7,2.8.4,5.3-1.6,5.7-4.4.4-2.8-1.6-5.3-4.4-5.7"/>
        <path id="path31" class="st3" d="M1730.1,1652.8c-2.4-.3-4.6,1.4-4.9,3.8-.3,2.4,1.4,4.6,3.8,4.9,2.4.3,4.6-1.4,4.9-3.8.3-2.4-1.4-4.6-3.8-4.9"/>
        <path id="path32" class="st3" d="M1572.8,1537.6c3.1.4,5.9-1.8,6.3-4.8.4-3.1-1.8-5.9-4.8-6.3-3.1-.4-5.9,1.8-6.3,4.8-.4,3.1,1.8,5.9,4.8,6.3"/>
        <path id="path33" class="st3" d="M1572.9,1550.9c3.1.4,5.9-1.8,6.3-4.9.4-3.1-1.8-5.9-4.9-6.3-3.1-.4-5.9,1.8-6.3,4.9-.4,3.1,1.8,5.9,4.9,6.3"/>
        <path id="path34" class="st3" d="M1574.7,1524.6c3.2.4,6.1-1.8,6.5-5,.4-3.2-1.8-6.1-5-6.5-3.2-.4-6.1,1.8-6.5,5-.4,3.2,1.8,6.1,5,6.5"/>
        <path id="path35" class="st3" d="M1574.6,1564.5c3.1.4,5.9-1.8,6.3-4.9.4-3.1-1.8-5.9-4.9-6.3-3.1-.4-5.9,1.8-6.3,4.9-.4,3.1,1.8,5.9,4.9,6.3"/>
        <path id="path36" class="st3" d="M1615.6,1577.3c2.4.3,4.7-1.4,5-3.8.3-2.4-1.4-4.7-3.8-5-2.4-.3-4.7,1.4-5,3.8-.3,2.4,1.4,4.7,3.8,5"/>
        <path id="path37" class="st3" d="M1610.5,1575.2c-10.8-8.4-21.6,2-21.6,2,11.7,6.4,21.6-2,21.6-2"/>
        <path id="path38" class="st3" d="M1582.1,1590.2c3.1.4,5.9-1.8,6.3-4.9.4-3.1-1.8-5.9-4.9-6.3-3.1-.4-5.9,1.8-6.3,4.9-.4,3.1,1.8,5.9,4.9,6.3"/>
        <path id="path39" class="st3" d="M1578,1577.5c3.1.4,6-1.8,6.4-4.9.4-3.1-1.8-6-4.9-6.4-3.1-.4-6,1.8-6.4,4.9-.4,3.1,1.8,6,4.9,6.4"/>
        <path id="path40" class="st3" d="M1587.8,1602.7c3.2.4,6.1-1.8,6.5-5,.4-3.2-1.8-6.1-5-6.5-3.2-.4-6.1,1.8-6.5,5-.4,3.2,1.8,6.1,5,6.5"/>
        <path id="path41" class="st3" d="M1612.1,1577c-13.6.7-14.3,16.7-14.3,16.7,12.3-2.6,14.3-16.7,14.3-16.7"/>
        <path id="path42" class="st3" d="M1612.2,1600.3c.8-3.6,3.8-6.9,6.6-9.3,3.1-2.7,7.5-3.5,11.6-3.1-.5,1.9-1.2,3.8-2.1,5.5-2.2,4.3-5.8,7.8-10.1,9.7-3,1.4-7.1,1.7-6-2.8M1609.5,1557.8c-5.7,3.5-12.1,4.1-17.7,1.1-2.3-1.3-2.9-2.6-1.8-4.7,1.2-2.4,3.5-4.1,6.4-5,4.7-1.5,10.5-1.2,15.6-.5,2.2.4,4.1,1.3,5.8,2.5-2.5,2.6-5.3,4.8-8.4,6.5M1613,1523.9c-2.3-2.4-4.5-5-5.9-8-2.9-5.8-3.2-13.8,1.4-18.5,3.6-2.9,10.5,6.1,12.5,9.3,1.3,2.1,2.2,4.3,2.9,6.7,1.7,6.4,2.5,13.5,1.8,20.3-4.6-2.5-8.9-6-12.7-9.9M1659.9,1520.6c4.5.2,3.9,5.1,2.3,8.2-3,4.2-8.4,6.8-13.2,8.4-1.3.4-2.6.7-4,.9,1.1-3,2.6-5.9,4.3-8.8,2.3-3.7,6-8.4,10.6-8.7M1659.3,1569.8c1.9-2.3,4.3-4.3,7.2-4.9,4.1-1,11.6-1.8,14.7,1.3,2.2,5.3-9.6,7.9-13.5,8.1-3.4.2-6.9-.6-10.1-2.1.5-.9,1.1-1.7,1.8-2.4M1621,1609.4c8.5-3.8,13.7-11.3,16.1-19.8,7.7,3.5,13.1,12.4,11.9,20.8-.8,5.4-6,13.8-11.7,15.1-5.3,1.4-9.7-1.7-10.1-7-.9-5.1,4.6-7.5,8.8-8.3.6-.2.9,0,1.3-.7-.4-.6-.9-.5-1.5-.5h-1.4c-5.2.5-10.4,4-9.7,9.8.6,10,11.7,12.8,19,7.2,12.6-10.2,13.8-25.3,3-37.4-2.3-2.5-5.1-4.4-8.2-5.7.5-5.3.1-10.7-1.2-15.6-1.8-5.9-5.4-12-10-16.7.8-1.3,1.6-2.5,2.2-3.9.5-1,.9-2.1,1.2-3.2,2,.6,4,1.1,6,1.4-.2,1.8-.3,3.5-.2,5.3.1,10.7,4.8,19.7,13,25.4-.1.6-.2,1.2-.3,1.9-1.2,16.3,13.3,26.9,28.6,24.7,6.2-.6,13-6.1,12.1-12.9-1.3-7-8.8-11.1-14.7-6.5-1.4,1-2.6,2.2-3.6,3.5-.1.2-.4.3,0,1,.8.4.8,0,1,0,2.1-2,5.2-4.2,8.2-3.8,2.8.4,5.4,3.5,5.6,6.2.2,2.8-2,5.5-4.7,7-2.7,1.4-6.4,1.4-9.5,1-6.7-.9-12.8-4.6-15.4-10.4-1.3-2.7-1.8-5.6-1.5-8.4.2,0,.3.2.5.2,3.8,1.6,8.2,2.7,12.4,2.2,7.1-.8,16.4-2.9,19.5-10.5,1.6-4.1-.3-9.2-4.1-11.2-6.7-3.5-15.1-2.6-21.8-.3-4.3,2-7.7,5.4-9.9,9.4-3.1-2.5-5.5-5.7-6.9-9.2-1.6-4.5-2.1-9.5-1.6-14.4,8.9-.5,21.5-6.2,25.2-14,2.7-5.7,2-13.9-4.7-16.4-8.7-3.4-16.7,4.5-20.6,11.4-2.2,3.6-4.1,7.7-5.4,11.9-2-.3-4-.7-5.9-1.4,1.7-11.1-.2-24.4-5-32.9-4.7-8.2-16.7-20.4-25-9.4-5.3,7.3-5,16.9-1.2,24.6,1.8,3.7,4.3,6.9,7.2,9.7,4.5,4.8,10.1,9.1,16.2,12.1-.3,1-.6,2-1,2.9-.4.8-.8,1.5-1.2,2.3-1.1-.8-2.2-1.5-3.4-2.1-3.7-2-8-2.2-12.1-2.4-3.9-.1-8,0-12.1,1.4-8,2.1-16.2,12.7-8.9,20,5,4.5,12.3,5.6,18.8,4.5,7.1-1.8,13.6-5.9,18.6-11.4,0,0,.1.1.2.2,3,3.5,5.6,7.4,7.2,11.7,1.2,4.2,1.7,8.7,1.4,13.2-5.5-.6-11.3.5-16,3.8-2.9,2.3-5.4,4.8-7.4,7.9-7.4,10.9,0,22.2,12.8,16.6"/>
        <path id="path43" class="st3" d="M1679.3,1594.6c6.5-2.5,1.5-11.9-4.5-7-4.4,3.6-7.8,3.2-12,2.4,0,0,6.6,8.4,16.5,4.5"/>
        <path id="path44" class="st3" d="M1608,1538.8c2-1.4,2.5-4.2,1.1-6.2-1.4-2-4.2-2.5-6.2-1.1-2,1.4-2.5,4.2-1.1,6.2,1.4,2,4.2,2.5,6.2,1.1"/>
        <path id="path45" class="st3" d="M1594.9,1614.2c3.1.4,6-1.8,6.4-4.9.4-3.1-1.8-6-4.9-6.4-3.1-.4-6,1.8-6.4,4.9-.4,3.1,1.8,6,4.9,6.4"/>
        <path id="path46" class="st3" d="M1603.1,1624.7c2.9.4,5.5-1.6,5.8-4.5.4-2.9-1.6-5.5-4.5-5.8-2.9-.4-5.5,1.6-5.8,4.5-.4,2.9,1.6,5.5,4.5,5.8"/>
        <path id="path47" class="st3" d="M1622.6,1634.2c-2.9-.4-5.5,1.7-5.9,4.5-.4,2.9,1.7,5.5,4.5,5.9,2.9.4,5.5-1.7,5.9-4.5.4-2.9-1.7-5.5-4.5-5.9"/>
        <path id="path48" class="st3" d="M1641.9,1617.5c6.9-7.6,2-15.9,2-15.9-1.8,12.3-9.4,10.2-12.9,13.7-3,2.9,3.1,10.9,10.9,2.2"/>
        <path id="path49" class="st3" d="M1613.2,1624.3c-2.9-.4-5.6,1.7-6,4.6-.4,2.9,1.7,5.6,4.6,6,2.9.4,5.6-1.7,6-4.6.4-2.9-1.7-5.6-4.6-6"/>
        <path id="path50" class="st3" d="M1687.4,1690.3c2.7.4,5.3-1.6,5.6-4.3.4-2.7-1.6-5.3-4.3-5.6-2.7-.4-5.3,1.6-5.6,4.3-.4,2.7,1.6,5.3,4.3,5.6"/>
        <path id="path51" class="st3" d="M1728.2,1646c.3-2.7-1.5-5.1-4.2-5.5-2.7-.3-5.1,1.5-5.5,4.2-.3,2.7,1.5,5.1,4.2,5.5,2.7.3,5.1-1.5,5.5-4.2"/>
        <path id="path52" class="st3" d="M1652.3,1670.5c2.9.4,5.5-1.6,5.8-4.5s-1.6-5.5-4.5-5.8c-2.9-.4-5.5,1.6-5.8,4.5-.4,2.9,1.6,5.5,4.5,5.8"/>
        <path id="path53" class="st3" d="M1695.7,1574c2.8.4,5.4-1.6,5.7-4.4.4-2.8-1.6-5.4-4.4-5.7-2.8-.4-5.4,1.6-5.7,4.4-.4,2.8,1.6,5.4,4.4,5.7"/>
        <path id="path54" class="st3" d="M1699.4,1587c2.7.4,5.2-1.6,5.5-4.3.4-2.7-1.6-5.2-4.3-5.5-2.7-.4-5.2,1.6-5.5,4.3-.4,2.7,1.6,5.2,4.3,5.5"/>
        <path id="path55" class="st3" d="M1758.9,1688.6c.2-1.9-1.1-3.6-2.9-3.8-1.9-.2-3.6,1.1-3.8,2.9-.2,1.9,1.1,3.6,2.9,3.8,1.9.2,3.6-1.1,3.8-2.9"/>
        <path id="path56" class="st3" d="M1675.6,1524.2c2.8.4,5.4-1.6,5.8-4.5.4-2.8-1.6-5.4-4.5-5.8-2.8-.4-5.4,1.6-5.8,4.5-.4,2.8,1.6,5.4,4.5,5.8"/>
        <path id="path57" class="st3" d="M1650.9,1552.1c-.6,2.4.9,4.8,3.3,5.3,2.4.6,4.8-.9,5.3-3.3.6-2.4-.9-4.8-3.3-5.3-2.4-.6-4.8.9-5.3,3.3"/>
        <path id="path58" class="st3" d="M1691.5,1561.5c2.8.4,5.3-1.6,5.7-4.4.4-2.8-1.6-5.3-4.4-5.7-2.8-.4-5.3,1.6-5.7,4.4-.4,2.8,1.6,5.3,4.4,5.7"/>
        <path id="path59" class="st3" d="M1682.8,1551.6c-11-7.6-21.7-.2-21.7-.2,9.9,9.4,21.7.2,21.7.2"/>
        <path id="path60" class="st3" d="M1692.9,1544.3c.4-2.8-1.6-5.4-4.4-5.8-2.8-.4-5.4,1.6-5.8,4.4-.4,2.8,1.6,5.4,4.4,5.8,2.8.4,5.4-1.6,5.8-4.4"/>
        <path id="path61" class="st3" d="M1668.3,1513.2c2.9.4,5.6-1.7,6-4.6.4-2.9-1.7-5.6-4.6-6-2.9-.4-5.6,1.7-6,4.6-.4,2.9,1.7,5.6,4.6,6"/>
        <path id="path62" class="st3" d="M1652.2,1498.6c-12.4,5.1-12.1,18.1-12.1,18.1,13.3-3.1,12.1-18.1,12.1-18.1"/>
        <path id="path63" class="st3" d="M1650.6,1483.8c-3-.4-5.8,1.7-6.1,4.7-.4,3,1.7,5.8,4.7,6.1,3,.4,5.8-1.7,6.1-4.7.4-3-1.7-5.8-4.7-6.1"/>
        <path id="path64" class="st3" d="M1637.2,1488.8c3,.4,5.8-1.7,6.2-4.8.4-3-1.7-5.8-4.8-6.2-3-.4-5.8,1.7-6.2,4.8-.4,3,1.7,5.8,4.8,6.2"/>
        <path id="path65" class="st3" d="M1665.5,1498.4c.4-3-1.7-5.7-4.7-6.1-3-.4-5.7,1.7-6.1,4.7-.4,3,1.7,5.7,4.7,6.1,3,.4,5.7-1.7,6.1-4.7"/>
        <path id="path66" class="st3" d="M1637.8,1516.9c8-11-4-21.6-4-21.6-5.7,11.3,4,21.6,4,21.6"/>
        <path id="path67" class="st3" d="M1635.2,1525.6c1.7,1.8,4.5,1.8,6.3.1,1.8-1.7,1.8-4.5.1-6.3-1.7-1.8-4.5-1.8-6.3-.1-1.8,1.7-1.8,4.5-.1,6.3"/>
        <path id="path68" class="st3" d="M1623.7,1486.7c3.1.4,5.9-1.8,6.3-4.8.4-3.1-1.8-5.9-4.8-6.3-3.1-.4-5.9,1.8-6.3,4.8-.4,3.1,1.8,5.9,4.8,6.3"/>
        <path id="path69" class="st3" d="M1586.9,1500.8c3.1.4,5.9-1.8,6.3-4.8.4-3.1-1.8-5.9-4.8-6.3-3.1-.4-5.9,1.8-6.3,4.8-.4,3.1,1.8,5.9,4.8,6.3"/>
        <path id="path70" class="st3" d="M1579.1,1511.5c3,.4,5.8-1.7,6.2-4.8.4-3-1.7-5.8-4.8-6.2-3-.4-5.8,1.7-6.2,4.8-.4,3,1.7,5.8,4.8,6.2"/>
        <path id="path71" class="st3" d="M1681.8,1536.5c2.9.4,5.6-1.7,5.9-4.6.4-2.9-1.7-5.6-4.6-5.9-2.9-.4-5.6,1.7-5.9,4.6-.4,2.9,1.7,5.6,4.6,5.9"/>
        <path id="path72" class="st3" d="M1659.6,1549.5c13.6.6,15.9-15.2,15.9-15.2-12.5,1.4-15.9,15.2-15.9,15.2"/>
        <path id="path73" class="st3" d="M1604,1487.4c.4-3.1-1.8-5.9-4.8-6.3-3.1-.4-5.9,1.8-6.3,4.8s1.8,5.9,4.8,6.3c3.1.4,5.9-1.8,6.3-4.8"/>
        <path id="path74" class="st3" d="M1021,1201.7c5.6-12.2.6-18.8-1.9-19.9-2.5-1.1-7.2-1.9-9.7,5.4-2.4,7.3-8,19.3-20.9,25.5-11.4,5.4-21.1,6.9-40.8,4.8-20.3-2.2-52-4.7-65.9,4.4-13.9,9.1-12.5,20.7-10.6,25.6,1.9,4.9,6.2,9.4,11.7,10.8,6.1,1.5,9.2-2.7,8.5-4.2-1.1-2.4-3.6.5-8.3-2.3-2.8-1.7-7.1-4.8-5.1-13.4,2-8.5,14.1-13,21.1-12.9,7.1.1,29.2,1.5,45.6,4.2,16.4,2.7,37.6,3.3,49.7-2,12.1-5.3,21-13.9,26.6-26"/>
        <path id="path75" class="st3" d="M922.1,1166.8c-17.3,10.2-26.7,26.1-25,29,.7,1.4,2.1.5,5.4-1.4,6.8-3.8,20.6-6.1,33.9-7.1,13.3-1,38.9,6.7,49.2,3.9,10.4-2.8,20.7-16.9,4.3-30.1-16.4-13.2-50.6-4.6-67.9,5.6"/>
        <path id="path76" class="st3" d="M852.6,1261.8c10.2,14.1,28.4,22.1,43.4,14,12.4-6.6,15-23.8,9.1-31.8-3.2-4.3-6.3-5.3-7.6-4.5-2.2,1.4.9,6.9,1.4,10.8.5,4-1.4,10.3-6.2,12.9-4.8,2.6-10.2,3.7-16.2,1.2-4.9-2-13.9-8.4-16.4-22.4-2.5-13.9-1.7-30.1,6.9-46.5,8.6-16.5,22.8-33.7,43.1-42.9,20.4-9.3,41.8-12.3,60.3-10.5,17,1.6,34.3,8.5,37.6,10.3,3.3,1.7,7.7,2.9,5.2-.1,0,0-22.7-21.7-61.2-21.1-38.5.6-73.1,19.3-94,50.4-20.9,31.1-15.6,66.2-5.4,80.3"/>
        <path id="path77" class="st3" d="M1006.4,1635.1c7-4.9,21.8-8.8,36.3-11.4,14.4-2.5,43.1,3.2,54.1-1,11-4.2,20.8-20.7,1.5-33.3-19.3-12.6-55.7.4-73.5,13.4-17.8,13-26.3,31.3-24.2,34.3,1,1.4,2.4.3,5.8-2.1"/>
        <path id="path78" class="st3" d="M1006.1,1669.3c7.7-.6,32-1.5,50.2-.3,18.2,1.2,41.4-.4,54-7.5,12.6-7,21.4-17.4,26.3-31.2,4.8-13.9-1.3-20.5-4.2-21.5-2.9-1-8.1-1.3-10,7-1.9,8.2-6.6,22-20,30-11.8,7.1-22.2,9.8-44,9.6-22.4-.2-57.3.4-71.5,11.8-14.2,11.4-11.4,23.9-8.8,29.1,2.5,5.2,7.7,9.6,13.9,10.5,6.9,1,9.7-3.9,8.8-5.5-1.4-2.5-3.9,1-9.3-1.6-3.2-1.6-8.3-4.5-7-14,1.2-9.5,13.9-15.7,21.7-16.3"/>
        <path id="path79" class="st3" d="M1053.6,1560.8c-42,4.7-77.7,28.8-97.2,65-19.5,36.2-9.9,74,2.7,88.2,12.6,14.3,33.3,21,48.9,10.7,12.8-8.5,13.8-27.6,6.5-35.7-3.9-4.4-7.5-5.1-8.7-4.1-2.2,1.7,1.7,7.5,2.6,11.6,1,4.3-.4,11.4-5.4,14.7-5,3.4-10.8,5.2-17.6,3.1-5.6-1.7-16.1-7.7-20.3-22.7-4.2-14.9-5-32.6,2.6-51.5,7.6-18.9,21.2-39.1,42.5-51.4,21.2-12.3,44.3-17.9,64.7-17.9,18.7,0,38.3,5.7,42.1,7.2,3.8,1.5,8.7,2.3,5.7-.7,0,0-27.1-21.3-69.1-16.6"/>
      </g>
      <g id="g98">
        <path id="path80" class="st2" d="M1563.2,1323c-5.8,1.1-9.7,6.7-8.6,12.5,1.1,5.8,6.7,9.7,12.5,8.6,5.8-1.1,9.7-6.7,8.6-12.5-1.1-5.8-6.7-9.7-12.5-8.6"/>
        <path id="path81" class="st2" d="M1023.8,1157.4c-5.3-1.2-10.6,2.1-11.8,7.4-1.2,5.3,2.1,10.6,7.4,11.8,5.3,1.2,10.6-2.1,11.8-7.4,1.2-5.3-2.1-10.6-7.4-11.8"/>
        <path id="path82" class="st2" d="M1134.9,1581.8c-5.9-.8-11.3,3.4-12.1,9.3-.8,5.9,3.4,11.3,9.3,12.1,5.9.8,11.3-3.4,12.1-9.3.8-5.9-3.4-11.3-9.3-12.1"/>
        <path id="path83" class="st2" d="M1363.7,833c15.5.9,26.7,1.6,35.4,5.6,6.1,2.8,10.8,8.8,11.9,15.2.7,4.1-.2,7.7-2.6,10.1-2.3,2.3-5,3.4-8.1,3.4-5.1,0-9.6-3.2-10.5-4.9-1.2-2.3,2.3-4.6,2.3-4.7.1,0,.3-.1.5-.2,1.5-.7,4.1-1.7,4.7-4.2.3-.9.3-2.4-.9-4-.9-1.3-2.5-2.1-4.3-2.1-5.2,0-12.1,5.6-13.6,13.2-.7,3.3.2,6.6,2.5,9.5,3.8,4.7,11.5,8.2,18.8,8.4.3,0,.5,0,.8,0,3.2,0,13.9-.6,19.4-8.3,3.8-5.2,4.2-12.4,1.2-21.2-5.7-16.8-22.6-22.3-32.5-24.1,5.8-3.9,13.6-10.9,15.7-21,2-10-1.4-20.4-9.7-29-6.9-7.3-16.6-12.8-25.9-14.6-3.3-.7-6.5-1-9.6-1-15.4,0-25.1,8.2-26.2,21.9-.5,6.1,1.1,11.2,4.6,14.9,3.9,4.2,10,6.5,17.1,6.5s4.3-.2,6.4-.6c4-.8,6.8-2.5,8.4-5,2.5-3.8,1.4-8.4.8-11.1,0-.4-.2-.7-.2-1-.5-2.7-2.9-4.5-5.8-4.5s-3,.5-3.9,1.5c-.7.7-1.1,1.6-1,2.6,0,.3,0,.7.1,1.2.1,1.2.4,3.5-.4,4.4-.4.4-1.1.6-2.2.6s-1.4,0-2.3-.3c-8.8-1.8-7.2-11.1-7.2-11.2v-.3c1.3-6.9,5.6-10.4,12.7-10.4s3.6.2,5.6.6c8.2,1.6,16.2,6.8,22.2,14.1,5.4,6.7,8.1,14.2,7,19.5-1.7,8.3-13.6,20.7-39.5,20.7h0c-6.2,0-13-.7-20.1-2.2-38.5-7.8-52.9-41.3-53.1-41.7l-4.5,1.5c3.5,15,11.8,27.2,25.4,37.3,16.7,12.4,40.4,13.8,57.6,14.9l2.9.2Z"/>
        <path id="path84" class="st2" d="M984.4,1546.1c-10.4-3.6-20.6.9-29.2,8.1-5.6,4.7-8.8,9.7-11.4,14.8-1.6,3.1-2.8,6.7-3.7,10.3-1.6-2.1-3.7-4.4-6.4-5.8-6-3.1-8-1.9-4.9-.1,3.1,1.8,8.2,5.5,9.3,15.3.2,2,.4,3.9.5,5.7,0,1.4.1,2.8.2,4.2.2,7-.5,12.4-1.7,18.2,0,0,0,.1,0,.3-2.3,7.9-7,17.3-16.4,25.3-13.1,11-23.4,13.3-29.7,13.3s-9.8-1.7-12.3-4.6c-2.4-2.8-3.2-8.2-2.1-14,1.2-6.3,4.5-12.1,8.9-15.8,2.9-2.5,5.7-3.7,8.2-3.7,3.6,0,5.7,2.6,6.4,3.4h.1c0,.2,4.2,5.4-.8,9.6-1.4,1.2-2.3,1.4-2.8,1.4-1.1,0-1.8-1.4-2.3-2.7-.1-.3-.2-.5-.3-.7-.3-.7-1.1-1.1-1.9-1.1s-2.3.6-3,1.6c-.6.9-.8,1.9-.5,2.9,0,.2.1.4.2.7.6,2.2,1.9,6.7,6.8,6.7s2.1-.2,3.3-.6c4.1-1.3,9.6-4.7,11.5-9.9,1.3-3.5.7-7.2-1.6-10.9-2.9-4.5-7.1-6.9-12-6.9s-10.2,2.3-15.3,6.6c-9.1,7.7-17,25.1-7.3,36.6,4.7,5.5,12.3,6.8,16.7,7-5.1,4-14.4,13-12.4,25.1,1.7,10.6,7.5,12.8,12,12.8h0c4.2,0,8-2,9.5-2.8,4.2-2.5,7.7-7,8.4-10.9.4-2.3-.1-4.3-1.5-5.9-2.4-2.9-5.9-3.9-8.5-3.9s-4.7,1.2-5,3c-.2,1.1.2,1.8.6,2.2.6.6,1.4.9,2.6.9s.9,0,1.3,0c.2,0,.3,0,.4,0,.4,0,1.9.3,2.7,1,.4.4.5.8.5,1.3,0,1.9-3.2,7.7-8.8,7.7s-1.5-.1-2.3-.3c-2.3-.6-4-2.4-5-5.1-1.4-4.2-.5-9.5,2.3-13.3,4-5.3,10.5-9.4,19.4-15l1.7-1.1c9.9-6.3,23.5-14.8,29.4-27.5,1.7-3.5,2.9-7,3.6-10.4,2.5-9.8,1.5-27.9,1.1-33.4,1.3-8.9,5.1-16.6,8.9-22.6,4.4-6.8,13.5-11.5,21.5-13,8-1.5,12.5,3.2,13.8,8,1.1,4.2-.3,10.4-3.2,14-1.1,1.1-2.4,1.6-3.9,1.5-3.3,0-8.3-4.3-8-7.5.3-2.6-1.8-4.4-4.6-.8-2.8,3.6-1,10.2,2.9,13.9,0,0,5.7,5.9,13,2.5,11.8-5.5,12.3-17.8,12.3-17.8.9-5.4-1.2-14.5-11.5-18.1"/>
        <path id="path85" class="st2" d="M1360.9,886.2c-24.9,11.5-27.7,34.8-24.2,47.9,0,0,4.3,30.6,35,41.2,19.2,6.6,31.7-9.5,31.7-9.5,8.9-10.2,11.7-27,3.8-35.3-7.9-8.3-12.5-3.2-11.2,3.1,1.6,7.8-9.8,19.7-17.9,20.6-3.9.4-7.1-.3-10.1-2.9-8.2-8.3-13.2-23.3-11.5-34,2-12.2,11.9-25.2,32.2-23.4,20.3,1.8,44.1,11.1,56.7,27,12.3,15.6,24.9,36.3,29.4,61.7-2.4-2.2-4-3.3-4-3.3-10.8-9.7-34.4-18.3-57.5-.1-23,18.2-27.7,47.7-23.8,77.6,2.6,19.5,9.2,33.7,16.9,47.1,7.5,13,19.3,25.5,30.8,35.2,10.2,8.6,32.8,21.4,42.9,25.4,6.9,3.3,14.9,5.8,22.4,7.3,9.8,2,31,2.3,36.2,1,5.2-1.3,3.1-5.4,0-5-3.1.3-9.1.6-27.9-2-8.9-1.2-16.8-3.8-23.8-7-.3-.2-.7-.5-1.1-.6-.5-.2-1.1-.5-1.8-.8-6.5-3.3-12.2-7.1-17.1-11-10.5-8.3-15.3-24.5-14.9-38.4.4-13.9,10.8-20.9,20-22.4,9.2-1.5,21.9,2.9,26,9.9,4.1,7.1-2.8,16.5-7.3,18.8-4.5,2.4.3,6.6,3.7,5.8,3.4-.8,14.3-9.9,15.2-24.1.9-14.2-14.2-22.2-23.5-24.4-9.3-2.2-26.7,0-37.4,17.3-6.5,10.6-7.5,21.5-5.1,31.9-6.9-14.5-15-36.9-10.2-55.2,2.7-10.2,8.9-17.8,19.1-23.1,2.5-1.3,3.4-4.3,2.1-6.8s-4.3-3.4-6.8-2.1c-12.7,6.7-20.8,16.6-24.2,29.5-4.7,18.2,1,38.9,7.4,54.5-11.6-13.1-19.8-27.4-25.9-40.6-9-19.6-6.4-46.9,1.7-67.2,8.1-20.3,25.3-23.5,38-19.5,11,3.5,23,15.6,26.9,27.4,1,4.1,18.2,36.6,21.2,15.1,2-14.6-1.7-26.5-6.7-35.2-.5-8.8-1.5-17.9-2.9-24-3.2-13.6-8.6-28.8-16.3-40.5-7.9-12.1-16.9-23.6-32.1-34-23.2-15.9-49.8-24.5-74.6-13"/>
        <path id="path86" class="st2" d="M1280.6,752c3.6-5.9-.6-17.5-5.2-20.8-1.9-1.4-3.6-2.1-5-2.1s-2.2.5-2.9,1.4c-.9,1.1-1.1,2.8-.6,4.9.6,2.7.5,5.3-.3,6.3-.1.2-.4.5-1.4.5s-1.4-.1-2.2-.4c-5.5-1.7-12.4-5.6-13.9-14.2-.5-2.8.3-5.9,2.4-8.7,3-4.1,8.1-6.9,14-7.7,2-.3,3.9-.4,5.8-.4,9.3,0,17.7,3,25.7,9.3,8.8,6.8,19.6,19.5,23.3,34.6,3.5,14.4,1.3,24.6-1.1,28-1.4,2.1-1.8,4.2-.9,5.8.7,1.3,2,2.1,3.5,2.1s3.6-1.1,5-3c3.7-5.4,7.3-23.2,1.1-39.7-6.5-17.2-23.4-38.2-46.7-46.3-4.9-1.7-9.8-2.6-14.5-2.6-14.5,0-25.7,8.4-29.9,16.3-5.4,10-1.5,27.6,11.7,36.1,7.7,4.9,14.4,7.4,19.8,7.4,5.3,0,9.6-2.3,12.3-6.8"/>
        <path id="path87" class="st2" d="M1593.9,1382.7c9.7-1.8,16.1-11.2,14.3-20.9-1.8-9.7-11.2-16.1-20.9-14.3-9.7,1.8-16.1,11.2-14.3,20.9,1.8,9.7,11.2,16.1,20.9,14.3"/>
        <path id="path88" class="st2" d="M1217.9,1285.2c-1.5-.6-3.2.1-3.8,1.6-.6,1.5.1,3.2,1.6,3.8,1.5.6,3.2-.1,3.8-1.6.6-1.5-.1-3.2-1.6-3.8"/>
        <path id="path89" class="st2" d="M1176.4,1270.6c3.1,1.2,6.7-.3,7.9-3.4,1.2-3.1-.3-6.7-3.4-7.9-3.1-1.2-6.7.3-7.9,3.4-1.2,3.1.3,6.7,3.4,7.9"/>
        <path id="path90" class="st2" d="M1158.4,1251.4c4.6,1.8,9.8-.4,11.7-5,1.8-4.6-.4-9.8-5-11.7s-9.8.4-11.7,5c-1.8,4.6.4,9.8,5,11.7"/>
        <path id="path91" class="st2" d="M1196.1,1278.9c-2.1-.8-4.5.2-5.4,2.3-.8,2.1.2,4.5,2.3,5.4,2.1.8,4.5-.2,5.4-2.3.8-2.1-.2-4.5-2.3-5.4"/>
        <path id="path92" class="st2" d="M1097.5,1158c-5-2-10.6.5-12.6,5.4-2,5,.5,10.6,5.4,12.6,5,2,10.6-.5,12.6-5.4,2-5-.5-10.6-5.4-12.6"/>
        <path id="path93" class="st2" d="M1123,1181.7c-5-2-10.6.5-12.6,5.4-2,5,.5,10.6,5.4,12.6,5,2,10.6-.5,12.6-5.4,2-5-.5-10.6-5.4-12.6"/>
        <path id="path94" class="st2" d="M1143.9,1208.7c-5-2-10.6.5-12.6,5.4-2,5,.5,10.6,5.4,12.6,5,2,10.6-.5,12.6-5.4,2-5-.5-10.6-5.4-12.6"/>
        <path id="path95" class="st2" d="M1061.2,1141.3c-8.8-2-17.6,3.5-19.7,12.3-2,8.8,3.5,17.6,12.3,19.7,8.8,2,17.6-3.5,19.7-12.3,2-8.8-3.5-17.6-12.3-19.7"/>
        <path id="path96" class="st2" d="M1646.8,1409c-5.5-8.6-14.5-13.1-25.8-13.1s-13.2,1.5-20,4.3c-10.2,4.2-20.3,13-26.1,18.6,1.9-24.8-10.9-40.4-24.4-47-4.9-2.4-10.9-3.6-17.4-3.6-12.4,0-27.3,4.8-32.6,15.6-6.6,13.6-5.5,28.3,3,39.2,3.2,4.1,7.8,6.3,12.9,6.3,7.7,0,15.1-5,17.6-11.8,2-5.5.9-9.6-.3-12-1.6-3.2-4.4-5.1-5.7-5.4h-.4c0,0-.3,0-.3,0-1.7,0-2.4,1.4-2.7,2.1-.6,1.3-2,4.1-9,5.5-.6.1-1.1.2-1.6.2-1.3,0-3.2-.3-4.3-3.2-2-5.3.6-14.4,5.1-18.4,3-2.7,10.5-5.5,19.7-5.5s26.8,2.4,29.3,24.9c3.3,30.2-13.3,48.9-49.3,55.5-3.6.7-7.3,1-11.2,1h0c-28.5,1.6-58.8-12.8-70.7-27.8-4.1-5.5-5.6-10.4-6.1-14-.9-6.4,1.1-11.3,3.3-13.7,2.5-2.8,7.6-4.6,13.1-4.6s10.1,1.6,13.2,4.5c2.1,1.9,3.2,3.8,3.3,5.8.1,2.8-2,5.1-2.7,5.9v.2c-.6.5-2.7,2.3-4.8,2.3s-1.7-.3-2.4-1c-.8-.7-1-1.2-.9-1.3,0-.2.4-.7,2-1.7.3-.2.5-.3.7-.5,1.2-.9,1.6-2.5,1.1-4-.6-1.8-2.2-3-4-3s-1.5.2-2.1.6c-.2,0-.4.2-.6.3-2.4,1.2-8.7,4.4-5.8,12.1,1.7,4.4,6,9.6,12.3,9.6h0c3.2,0,6.5-1.4,9.6-4.2,4.1-3.6,6.3-8,6.3-12.7,0-5.1-2.6-10.2-7.2-14.5-4.6-4.1-11.6-6.7-18.5-6.7s-12.1,1.3-17.8,7.6c-4.3,4.8-5.7,10.8-6,15.2-2.8-2.4-7-5-12-5.9-8-1.7-28.9,2.8-38.7,4.2-.3,0-.5,0-.8,0-3.6.5-7.5.4-11.5-.3-6.9-1.2-13.5-4.1-18.2-7.9-6.2-5.1-7.3-10.6-3.4-17.6.8-1.3,2.3-3.5,4.1-3.2.9.2,1.8.9,2.2,1.6.2.4.5.9.7,1.3.8,1.7,2,4.1,4.5,4.5,1.3.2,2.6-.1,4-1,2.1-1.3,3.4-3.3,3.5-5.6.2-3.2-1.7-6.7-5.3-9.6-1.9-1.5-4.1-2.5-6.4-2.9-5.1-.9-10.1,1.3-13.9,5.9-6,7.4-9.8,22.5,4.2,33.9,5.6,4.5,12.2,7.5,19.8,8.8,8.1,1.4,17.1,1,27.6-1.2,2-.4,3.8-.8,5.5-1.1-.3.7-.6,1.3-.8,2-1.8,6.1,1.7,11.5,2.8,13.1,2.7,3.6,7.2,6.1,11.2,6.1s5-1,6.7-2.9c3.5-3.9,4.2-9.3,2.9-12.2-.7-1.6-2.1-2.6-3.6-2.6s-.2,0-.4,0c-1.5.1-2.4.9-2.9,1.5-1.2,1.5-.9,3.5-.7,4.5,0,.1,0,.2,0,.2,0,.3-.2,2.2-1.2,2.4,0,0-.1,0-.3,0-1,0-3.1-.6-4.4-2.2-1-1.3-1.3-2.9-.9-4.9.8-3.7,5.5-6.7,10.6-6.7s3.4.4,4.7,1.1c4.8,2.4,8.8,7.4,14.3,14.4l1.1,1.3c.6.7,2.5,2.7,2.8,3,24.5,26.3,63.9,34.4,85.8,34.4h0c18.8,0,32.3-6.3,40.3-11.6,8.9-5.8,14.6-13.5,22.4-24.2,2.3-3.1,4.7-6.3,7.5-9.9,11.8-15.3,21.2-19.4,34.5-21.6,1.3-.2,2.6-.3,3.9-.3,10,0,17.8,7,20.1,13.5,3.2,9.3-1.1,15.5-4,19.6l-.5.7c-1,1.4-3.1,2.4-5.3,2.4s-3.3-.6-4.1-1.8c-2.2-3.1-1.9-6.1.8-8.8,2.1-2.1,2.1-3.9,1.7-5.1-.3-1-1.4-2.8-4.7-3.3-1.1-.2-2.2-.3-3.2-.3-4.3,0-7.8,1.6-10.2,4.6-2.7,3.3-3.7,8.3-2.7,13.2,1.5,7.2,10.8,13.2,20.5,13.2s5.5-.5,7.9-1.6c5.4-2.5,10.5-9.4,12.9-17.7,2.6-9.1,1.7-18.1-2.7-24.9"/>
        <path id="path97" class="st2" d="M1174,1560.3c-9.9-1.3-18.9,5.7-20.2,15.5-1.3,9.9,5.7,18.9,15.5,20.2,9.9,1.3,18.9-5.7,20.2-15.5,1.3-9.9-5.7-18.9-15.5-20.2"/>
      </g>
    </g>
  </g>
</svg>